<svg xmlns="http://www.w3.org/2000/svg" viewBox="0 0 640 420">
<rect width="640" height="420" rx="34" fill="#f4f0ff"/>
<circle cx="510" cy="100" r="86" fill="#d9d0f7"/>
<rect x="250" y="60" width="18" height="180" rx="9" fill="#8067e8"/>
<path d="M150 260h240a20 20 0 0 1 20 20v10a20 20 0 0 1-20 20H150a20 20 0 0 1-20-20v-10a20 20 0 0 1 20-20Z" fill="#8067e8"/>
<rect x="145" y="300" width="250" height="24" rx="12" fill="#fff" opacity=".9"/>
<circle cx="259" cy="250" r="10" fill="#ffd75f"/>
<rect x="440" y="190" width="100" height="140" rx="18" fill="#ff5f8f"/>
<rect x="458" y="213" width="64" height="60" rx="10" fill="#fff"/>
</svg>
